<svg width="461" height="101" viewBox="0 0 461 101" fill="none" xmlns="http://www.w3.org/2000/svg">
<path d="M124.654 82.04L118.624 73.933C116.837 74.2903 115.095 74.469 113.398 74.469C108.976 74.469 104.911 73.4417 101.204 71.387C97.5413 69.3323 94.6157 66.4737 92.427 62.811C90.283 59.1037 89.211 54.9497 89.211 50.349C89.211 45.7483 90.283 41.6167 92.427 37.954C94.6157 34.2913 97.5413 31.4327 101.204 29.378C104.911 27.3233 108.976 26.296 113.398 26.296C117.82 26.296 121.862 27.3233 125.525 29.378C129.232 31.4327 132.136 34.2913 134.235 37.954C136.379 41.6167 137.451 45.7483 137.451 50.349C137.451 54.369 136.625 58.054 134.972 61.404C133.364 64.7093 131.108 67.4563 128.205 69.645L138.523 82.04H124.654ZM100.936 50.349C100.936 54.503 102.053 57.8307 104.286 60.332C106.564 62.7887 109.601 64.017 113.398 64.017C117.15 64.017 120.143 62.7663 122.376 60.265C124.654 57.7637 125.793 54.4583 125.793 50.349C125.793 46.195 124.654 42.8897 122.376 40.433C120.143 37.9317 117.15 36.681 113.398 36.681C109.601 36.681 106.564 37.9093 104.286 40.366C102.053 42.8227 100.936 46.1503 100.936 50.349ZM180.873 36.614V74H169.416V68.908C168.254 70.5607 166.669 71.9007 164.659 72.928C162.693 73.9107 160.505 74.402 158.093 74.402C155.234 74.402 152.71 73.7767 150.522 72.526C148.333 71.2307 146.636 69.377 145.43 66.965C144.224 64.553 143.621 61.7167 143.621 58.456V36.614H155.011V56.915C155.011 59.4163 155.658 61.3593 156.954 62.744C158.249 64.1287 159.991 64.821 162.18 64.821C164.413 64.821 166.177 64.1287 167.473 62.744C168.768 61.3593 169.416 59.4163 169.416 56.915V36.614H180.873ZM194.864 32.728C192.854 32.728 191.202 32.1473 189.906 30.986C188.656 29.78 188.03 28.306 188.03 26.564C188.03 24.7773 188.656 23.3033 189.906 22.142C191.202 20.936 192.854 20.333 194.864 20.333C196.83 20.333 198.438 20.936 199.688 22.142C200.984 23.3033 201.631 24.7773 201.631 26.564C201.631 28.306 200.984 29.78 199.688 30.986C198.438 32.1473 196.83 32.728 194.864 32.728ZM200.559 36.614V74H189.102V36.614H200.559ZM219.582 64.553H235.796V74H206.785V64.888L222.329 46.061H206.919V36.614H235.461V45.726L219.582 64.553ZM252.82 64.553H269.034V74H240.023V64.888L255.567 46.061H240.157V36.614H268.699V45.726L252.82 64.553ZM281.101 32.728C279.091 32.728 277.438 32.1473 276.143 30.986C274.892 29.78 274.267 28.306 274.267 26.564C274.267 24.7773 274.892 23.3033 276.143 22.142C277.438 20.936 279.091 20.333 281.101 20.333C283.066 20.333 284.674 20.936 285.925 22.142C287.22 23.3033 287.868 24.7773 287.868 26.564C287.868 28.306 287.22 29.78 285.925 30.986C284.674 32.1473 283.066 32.728 281.101 32.728ZM286.796 36.614V74H275.339V36.614H286.796ZM313.858 46.128H307.694V74H296.237V46.128H292.083V36.614H296.237V35.542C296.237 30.9413 297.555 27.4573 300.19 25.09C302.826 22.678 306.689 21.472 311.781 21.472C312.63 21.472 313.255 21.4943 313.657 21.539V31.254C311.469 31.12 309.928 31.4327 309.034 32.192C308.141 32.9513 307.694 34.3137 307.694 36.279V36.614H313.858V46.128ZM357.432 36.614L333.982 91.755H321.654L330.23 72.727L315.021 36.614H327.818L336.461 59.997L345.037 36.614H357.432ZM414.84 26.966V74H403.383V45.793L392.864 74H383.618L373.032 45.726V74H361.575V26.966H375.109L388.308 59.528L401.373 26.966H414.84ZM458.321 54.704C458.321 55.776 458.254 56.8927 458.12 58.054H432.191C432.369 60.3767 433.106 62.1633 434.402 63.414C435.742 64.62 437.372 65.223 439.293 65.223C442.151 65.223 444.139 64.017 445.256 61.605H457.45C456.824 64.0617 455.685 66.2727 454.033 68.238C452.425 70.2033 450.392 71.7443 447.936 72.861C445.479 73.9777 442.732 74.536 439.695 74.536C436.032 74.536 432.771 73.7543 429.913 72.191C427.054 70.6277 424.821 68.3943 423.213 65.491C421.605 62.5877 420.801 59.193 420.801 55.307C420.801 51.421 421.582 48.0263 423.146 45.123C424.754 42.2197 426.987 39.9863 429.846 38.423C432.704 36.8597 435.987 36.078 439.695 36.078C443.313 36.078 446.529 36.8373 449.343 38.356C452.157 39.8747 454.345 42.041 455.909 44.855C457.517 47.669 458.321 50.952 458.321 54.704ZM446.596 51.689C446.596 49.7237 445.926 48.1603 444.586 46.999C443.246 45.8377 441.571 45.257 439.561 45.257C437.64 45.257 436.01 45.8153 434.67 46.932C433.374 48.0487 432.57 49.6343 432.258 51.689H446.596Z" fill="black"/>
<circle cx="37" cy="50" r="37" fill="#35C0ED"/>
<path d="M14.9821 49.1339H9.85714C6.62233 49.1339 4 51.7563 4 54.9911V59.3839C4 62.6187 6.62233 65.2411 9.85714 65.2411H14.9821V49.1339Z" fill="#F5F5F5"/>
<path d="M59.6429 65.2411H64.4018C67.6366 65.2411 70.2589 62.6187 70.2589 59.3839V54.9911C70.2589 51.7563 67.6366 49.1339 64.4018 49.1339H59.6429V65.2411Z" fill="#F5F5F5"/>
<path fill-rule="evenodd" clip-rule="evenodd" d="M16.8125 49.5C16.8125 46.6695 19.107 44.375 21.9375 44.375H52.6875C55.518 44.375 57.8125 46.6695 57.8125 49.5V64.875C57.8125 67.7055 55.518 70 52.6875 70H21.9375C19.107 70 16.8125 67.7055 16.8125 64.875V49.5ZM31.4554 57.1875C31.4554 59.2093 29.8165 60.8482 27.7947 60.8482C25.7729 60.8482 24.134 59.2093 24.134 57.1875C24.134 55.1657 25.7729 53.5268 27.7947 53.5268C29.8165 53.5268 31.4554 55.1657 31.4554 57.1875ZM46.8303 60.8482C48.8521 60.8482 50.491 59.2093 50.491 57.1875C50.491 55.1657 48.8521 53.5268 46.8303 53.5268C44.8085 53.5268 43.1696 55.1657 43.1696 57.1875C43.1696 59.2093 44.8085 60.8482 46.8303 60.8482Z" fill="#F5F5F5"/>
<path d="M38.4107 35.4018C39.6903 34.9495 40.6071 33.7292 40.6071 32.2946C40.6071 30.4751 39.132 29 37.3125 29C35.4929 29 34.0178 30.4751 34.0178 32.2946C34.0178 33.7292 34.9346 34.9495 36.2143 35.4018V42.5446H38.4107V35.4018Z" fill="#F5F5F5"/>
</svg>
